<?xml version="1.0" encoding="UTF-8" standalone="no"?>
<svg
   id="svg13986"
   height="16"
   width="16"
   version="1.1"
   inkscape:version="1.4.3 (0d15f75042, 2025-12-25)"
   sodipodi:docname="16.svg"
   inkscape:export-filename="/home/lains/Documents/Projects/lainsce.github.io/icons/jorts-big.png"
   inkscape:export-xdpi="90"
   inkscape:export-ydpi="90"
   xml:space="preserve"
   xmlns:inkscape="http://www.inkscape.org/namespaces/inkscape"
   xmlns:sodipodi="http://sodipodi.sourceforge.net/DTD/sodipodi-0.dtd"
   xmlns:xlink="http://www.w3.org/1999/xlink"
   xmlns="http://www.w3.org/2000/svg"
   xmlns:svg="http://www.w3.org/2000/svg"
   xmlns:rdf="http://www.w3.org/1999/02/22-rdf-syntax-ns#"
   xmlns:cc="http://creativecommons.org/ns#"
   xmlns:dc="http://purl.org/dc/elements/1.1/"><sodipodi:namedview
     pagecolor="#ffffff"
     bordercolor="#666666"
     borderopacity="1"
     objecttolerance="10"
     gridtolerance="10"
     guidetolerance="10"
     inkscape:pageopacity="0"
     inkscape:pageshadow="2"
     inkscape:window-width="1920"
     inkscape:window-height="940"
     id="namedview69"
     showgrid="false"
     showguides="true"
     inkscape:guide-bbox="true"
     inkscape:zoom="8"
     inkscape:cx="-32.9375"
     inkscape:cy="-11.0625"
     inkscape:window-x="0"
     inkscape:window-y="0"
     inkscape:window-maximized="1"
     inkscape:current-layer="svg13986"
     inkscape:showpageshadow="2"
     inkscape:pagecheckerboard="0"
     inkscape:deskcolor="#d1d1d1"><inkscape:grid
       id="grid4"
       units="px"
       originx="-138"
       originy="0"
       spacingx="0.5"
       spacingy="0.5"
       empcolor="#e50000"
       empopacity="0.2"
       color="#e50000"
       opacity="0.10196078"
       empspacing="2"
       enabled="true"
       visible="false" /><inkscape:page
       x="0"
       y="0"
       width="16"
       height="16"
       id="page28"
       margin="0"
       bleed="0" /></sodipodi:namedview><defs
     id="defs13988"><linearGradient
       id="linearGradient18"
       inkscape:collect="always"><stop
         style="stop-color:#64baff;stop-opacity:1;"
         offset="0"
         id="stop10" /><stop
         style="stop-color:#4da1f2;stop-opacity:1;"
         offset="0.39903849"
         id="stop26" /><stop
         style="stop-color:#4da1f2;stop-opacity:1;"
         offset="0.61148691"
         id="stop25" /><stop
         style="stop-color:#64baff;stop-opacity:1;"
         offset="1"
         id="stop16" /></linearGradient><linearGradient
       id="linearGradient17"
       inkscape:collect="always"><stop
         style="stop-color:#64baff;stop-opacity:1;"
         offset="0"
         id="stop18" /><stop
         style="stop-color:#3689e6;stop-opacity:1;"
         offset="1"
         id="stop19" /></linearGradient><linearGradient
       id="linearGradient25"><stop
         id="stop21-7"
         style="stop-color:#ffffff;stop-opacity:1"
         offset="0" /><stop
         id="stop22-6"
         style="stop-color:#ffffff;stop-opacity:0.23529412"
         offset="0.075" /><stop
         id="stop23-5"
         style="stop-color:#ffffff;stop-opacity:0.15686275"
         offset="0.5625" /><stop
         id="stop24"
         style="stop-color:#ffffff;stop-opacity:0.5;"
         offset="0.75" /><stop
         id="stop25-6"
         style="stop-color:#ffffff;stop-opacity:0.39215687"
         offset="1" /></linearGradient><linearGradient
       inkscape:collect="always"
       xlink:href="#linearGradient18"
       id="linearGradient11"
       x1="8"
       y1="1.5"
       x2="8"
       y2="14.5"
       gradientUnits="userSpaceOnUse" /><linearGradient
       inkscape:collect="always"
       xlink:href="#linearGradient25"
       id="linearGradient43-8"
       x1="8"
       y1="3"
       x2="8"
       y2="11"
       gradientUnits="userSpaceOnUse" /><linearGradient
       inkscape:collect="always"
       xlink:href="#linearGradient17"
       id="linearGradient28"
       gradientUnits="userSpaceOnUse"
       x1="8"
       y1="1.5"
       x2="8"
       y2="14.5" /></defs><metadata
     id="metadata13991"><rdf:RDF><cc:Work
         rdf:about=""><dc:format>image/svg+xml</dc:format><dc:type
           rdf:resource="http://purl.org/dc/dcmitype/StillImage" /></cc:Work></rdf:RDF></metadata><rect
     style="opacity:1;fill:url(#linearGradient28);stroke-width:2;stroke-linecap:round;stroke-linejoin:round"
     id="rect3"
     width="13"
     height="13"
     x="1.5"
     y="1.5"
     rx="2"
     ry="2" /><path
     id="rect7"
     style="opacity:1;fill:none;stroke:#ad5f00;stroke-linecap:round;stroke-linejoin:round;stroke-opacity:1"
     d="m 14.5,10.5 v 2 c 0,1.108 -0.892,2 -2,2 H 4.2421875 3.5 c -1.108,0 -2,-0.892 -2,-2 v -2"
     sodipodi:nodetypes="csscssc" /><path
     id="path21"
     style="opacity:1;fill:url(#linearGradient11);stroke:none;stroke-linecap:round;stroke-linejoin:round"
     d="m 3.5,1.5 h 9 c 1.108,0 2,0.892 2,2 0,1.6070612 0.322831,4.1826146 0.709088,5.9108296 C 15.344893,10.018457 15.136674,10.863462 14.59606,11.16964 12.859872,12.152933 10.082869,12.5 8,12.5 5.9170913,12.5 3.1400212,12.152919 1.4038395,11.169583 0.86328666,10.863425 0.65516337,10.01827 0.79100703,9.4104053 1.1772221,7.6821931 1.5,5.1069297 1.5,3.5 c 0,-1.108 0.892,-2 2,-2 z"
     sodipodi:nodetypes="ccccccccsc" /><path
     id="rect20"
     style="opacity:1;fill:none;stroke:#ad5f00;stroke-linecap:round;stroke-linejoin:miter;stroke-opacity:1"
     d="m 3.5,1.5 h 9 c 1.108,0 2,0.892 2,2 0,1.6070569 0.322829,4.1826007 0.709085,5.9108156 0.135806,0.6076354 -0.07242,1.4526514 -0.613037,1.7588314 C 12.859858,12.152934 10.082864,12.5 8,12.5 5.9170561,12.5 3.1399273,12.152908 1.4037514,11.169533 0.86325241,10.863393 0.65515025,10.018314 0.79098496,9.410504 1.1772098,7.6822912 1.5,5.1069603 1.5,3.5 c 0,-1.108 0.892,-2 2,-2 z"
     sodipodi:nodetypes="cccccccc"
     inkscape:label="rect20" /><path
     id="path32"
     style="opacity:0.5;fill:none;stroke:url(#linearGradient43-8);stroke-linecap:round;stroke-linejoin:miter"
     d="m 3.5,2.5097656 h 9 c 0.56593,0 0.990234,0.4243042 0.990234,0.9902344 0,1.6411942 0.327809,4.3295342 0.742855,6.1707385 0.05771,0.2559895 -0.06694,0.5803885 -0.299603,0.7017675 C 12.196776,11.278545 9.4873481,11.490234 8,11.490234 c -1.4942687,0 -4.1996816,-0.213159 -5.9336852,-1.117839 C 1.8337686,10.251069 1.7092415,9.9265877 1.766982,9.670423 2.1819949,7.829227 2.5097656,5.1411004 2.5097656,3.5 2.5097656,2.9340698 2.9340698,2.5097656 3.5,2.5097656 Z"
     sodipodi:nodetypes="ccccccsc" /><path
     style="opacity:0.4;fill:none;fill-opacity:1;stroke:#002e99;stroke-width:1;stroke-linecap:butt;stroke-linejoin:miter;stroke-dasharray:none;stroke-opacity:1"
     d="m 4,4.5 h 8"
     id="path47" /><path
     style="opacity:0.4;fill:none;fill-opacity:1;stroke:#002e99;stroke-width:1;stroke-linecap:butt;stroke-linejoin:miter;stroke-dasharray:none;stroke-opacity:1"
     d="m 4,6.5 h 7"
     id="path48" /></svg>
